<svg width="100" height="100" viewBox="0 0 100 100" fill="none" xmlns="http://www.w3.org/2000/svg">
<circle cx="50" cy="50" r="50" fill="#68B738"/>
<path d="M32.6667 19C27.8865 19 24 22.4754 24 26.75V73.25C24 77.5246 27.8865 81 32.6667 81H67.3333C72.1135 81 76 77.5246 76 73.25V38.375H58.6667C56.2698 38.375 54.3333 36.6434 54.3333 34.5V19H32.6667ZM58.6667 19V34.5H76L58.6667 19ZM32.6667 28.6875C32.6667 27.6219 33.6417 26.75 34.8333 26.75H43.5C44.6917 26.75 45.6667 27.6219 45.6667 28.6875C45.6667 29.7531 44.6917 30.625 43.5 30.625H34.8333C33.6417 30.625 32.6667 29.7531 32.6667 28.6875ZM32.6667 36.4375C32.6667 35.3719 33.6417 34.5 34.8333 34.5H43.5C44.6917 34.5 45.6667 35.3719 45.6667 36.4375C45.6667 37.5031 44.6917 38.375 43.5 38.375H34.8333C33.6417 38.375 32.6667 37.5031 32.6667 36.4375ZM50 45.1563C51.1917 45.1563 52.1667 46.0281 52.1667 47.0938V49.1887C53.3177 49.334 54.4281 49.5641 55.4302 49.8063C56.5813 50.0848 57.2719 51.1383 56.9604 52.1797C56.649 53.2211 55.4708 53.8266 54.3063 53.548C52.8031 53.1848 51.3271 52.9184 49.9594 52.9063C48.8219 52.8941 47.6031 53.1242 46.7635 53.5723C45.9917 53.984 45.6667 54.4562 45.6667 55.1223C45.6667 55.5703 45.8427 55.9094 46.6552 56.3453C47.5896 56.8418 48.9031 57.2051 50.6094 57.6652L50.6771 57.6773C52.2073 58.0891 54.1031 58.5977 55.5927 59.4453C57.2313 60.3656 58.626 61.8309 58.6667 64.0711C58.7073 66.4082 57.3667 68.1035 55.5656 69.1086C54.5229 69.6898 53.3448 70.0289 52.1667 70.2105V72.2813C52.1667 73.3469 51.1917 74.2188 50 74.2188C48.8083 74.2188 47.8333 73.3469 47.8333 72.2813V70.1258C46.3167 69.8715 44.8948 69.4355 43.649 69.048C43.3646 68.9633 43.0802 68.8785 42.8094 68.7938C41.6719 68.4547 41.0625 67.3527 41.4417 66.3477C41.8208 65.3426 43.0531 64.7855 44.1771 65.1246C44.5156 65.2215 44.8271 65.3184 45.1385 65.4152C46.9802 65.9723 48.4698 66.4324 50.0542 66.4688C51.2865 66.5051 52.4781 66.2629 53.2635 65.827C53.9542 65.4395 54.3333 64.943 54.3198 64.1316C54.3063 63.5746 54.076 63.1871 53.2771 62.727C52.3563 62.2063 51.0427 61.8309 49.35 61.3707L49.1333 61.3102C47.6438 60.9105 45.8427 60.4262 44.4208 59.6512C42.7958 58.7793 41.3604 57.3625 41.3469 55.1344C41.3333 52.7852 42.8094 51.1625 44.5698 50.2301C45.5854 49.6973 46.7094 49.3582 47.8333 49.1766V47.0938C47.8333 46.0281 48.8083 45.1563 50 45.1563Z" fill="white"/>
</svg>
